<?xml version="1.0" encoding="utf-8"?>
<!DOCTYPE svg PUBLIC "-//W3C//DTD SVG 1.1//EN" "http://www.w3.org/Graphics/SVG/1.1/DTD/svg11.dtd">
<svg version="1.1" id="Layer_1" xmlns="http://www.w3.org/2000/svg" xmlns:xlink="http://www.w3.org/1999/xlink" x="0px" y="0px"
	 width="24px" height="24px" viewBox="0 0 24 24" enable-background="new 0 0 24 24" xml:space="preserve">
<g id="github_2_">
	<path d="M21.5,0h-19C1.119,0,0,1.119,0,2.5v19C0,22.881,1.119,24,2.5,24h19c1.381,0,2.5-1.119,2.5-2.5v-19
		C24,1.119,22.881,0,21.5,0z M10,16H8v-3h2V16z M13,17h-2v-1h2V17z M16,16h-2v-3h2V16z M15,7L15,7l4-2l0.062,4
		C19.785,9.867,20,10.782,20,12v1c0,1.844-1.01,3.437-2.494,4.304C17.81,16.953,18,16.501,18,16v-2c0-1.104-0.896-2-2-2H8
		c-1.104,0-2,0.896-2,2v2c0,0.501,0.19,0.953,0.494,1.304C5.01,16.437,4,14.844,4,13v-1c0-1.143,0.355-2.158,1-3V5l4,1.998L15,7z"/>
</g>
</svg>
