<?xml version="1.0" encoding="utf-8"?>
<!DOCTYPE svg PUBLIC "-//W3C//DTD SVG 1.1//EN" "http://www.w3.org/Graphics/SVG/1.1/DTD/svg11.dtd">
<svg version="1.1" id="Layer_1" xmlns="http://www.w3.org/2000/svg" xmlns:xlink="http://www.w3.org/1999/xlink" x="0px" y="0px"
	 viewBox="0 0 24 24" enable-background="new 0 0 24 24" xml:space="preserve">
<path fill="#404041" d="M119.8-44.9c0,1.6-1.3,3-3,3h-9.3c-1.7,0-3-1.4-3-3v-9.3c0-1.7,1.3-3,3-3h9.3c1.7,0,3,1.3,3,3V-44.9z"/>
<g>
	<path d="M21.5,0h-19C1.1,0,0,1.1,0,2.5v19C0,22.9,1.1,24,2.5,24h19c1.4,0,2.5-1.1,2.5-2.5v-19C24,1.1,22.9,0,21.5,0z"/>
</g>
<g>
	<path fill="#FFFFFF" d="M16,12c0,2.2-1.8,4-4,4s-4-1.8-4-4c0-0.6,0.1-1.2,0.4-1.7H4V16c0,2.2,1.8,4,4,4h8c2.2,0,4-1.8,4-4v-5.7
		h-4.4C15.9,10.8,16,11.4,16,12z"/>
	<path fill="#FFFFFF" d="M16,4H8C5.8,4,4,5.8,4,8v1.3h5.1C9.8,8.5,10.8,8,12,8s2.2,0.5,2.9,1.3H20V8C20,5.8,18.2,4,16,4z M18.5,8
		c0,0.3-0.2,0.5-0.5,0.5h-2c-0.3,0-0.5-0.2-0.5-0.5V6c0-0.3,0.2-0.5,0.5-0.5h2c0.3,0,0.5,0.2,0.5,0.5V8z"/>
</g>
</svg>
