<?xml version="1.0" encoding="utf-8"?>
<!-- Generator: Adobe Illustrator 18.0.0, SVG Export Plug-In . SVG Version: 6.00 Build 0)  -->
<!DOCTYPE svg PUBLIC "-//W3C//DTD SVG 1.1//EN" "http://www.w3.org/Graphics/SVG/1.1/DTD/svg11.dtd">
<svg version="1.1" id="Layer_1" xmlns="http://www.w3.org/2000/svg" xmlns:xlink="http://www.w3.org/1999/xlink" x="0px" y="0px"
	 viewBox="0 0 24 24" enable-background="new 0 0 24 24" xml:space="preserve">
<path fill="#404041" d="M119.8-44.9c0,1.6-1.3,3-3,3h-9.3c-1.7,0-3-1.4-3-3v-9.3c0-1.7,1.3-3,3-3h9.3c1.7,0,3,1.3,3,3V-44.9z"/>
<g>
	<path d="M21.5,0h-19C1.1,0,0,1.1,0,2.5v19C0,22.9,1.1,24,2.5,24h19c1.4,0,2.5-1.1,2.5-2.5v-19C24,1.1,22.9,0,21.5,0z M20,16
		c0,2.2-1.8,4-4,4H8c-2.2,0-4-1.8-4-4v-5.5h4.6c-0.2,0.5-0.4,1-0.4,1.6c0,2.1,1.7,3.8,3.8,3.8c2.1,0,3.8-1.7,3.8-3.8
		c0-0.6-0.1-1.1-0.4-1.6H20V16z M20,9.1h-2.7h-3c-0.6-0.4-1.4-0.7-2.2-0.7s-1.6,0.3-2.2,0.7H4V8c0-2.2,1.8-4,4-4h8c2.2,0,4,1.8,4,4
		V9.1z"/>
	<path d="M17.2,6h-1.4c-0.2,0-0.4,0.2-0.4,0.4v1.4c0,0.2,0.2,0.4,0.4,0.4h1.4c0.2,0,0.4-0.2,0.4-0.4V6.4C17.6,6.2,17.4,6,17.2,6z"/>
</g>
</svg>
