<?xml version="1.0" encoding="utf-8"?>
<!DOCTYPE svg PUBLIC "-//W3C//DTD SVG 1.1//EN" "http://www.w3.org/Graphics/SVG/1.1/DTD/svg11.dtd">
<svg version="1.1" id="Layer_1" xmlns="http://www.w3.org/2000/svg" xmlns:xlink="http://www.w3.org/1999/xlink" x="0px" y="0px"
	 width="24px" height="24px" viewBox="0 0 24 24" enable-background="new 0 0 24 24" xml:space="preserve">
<g id="twitter_x5F_t_2_">
	<path d="M21.5,0h-19C1.119,0,0,1.119,0,2.5v19C0,22.881,1.119,24,2.5,24h19c1.381,0,2.5-1.119,2.5-2.5v-19
		C24,1.119,22.881,0,21.5,0z"/>
</g>
<g>
	<path fill="#FFFFFF" d="M6.287,18.149V5.379h5.775c1.675,0,2.953,0.37,3.837,1.109c0.883,0.738,1.326,1.803,1.326,3.191
		c0,0.907-0.223,1.656-0.668,2.242c-0.444,0.588-1.045,0.93-1.801,1.029l3.41,5.198H13.02l-2.232-4.212v4.212H6.287z M10.788,8.67
		v2.494h0.714c0.437,0,0.772-0.105,1.008-0.32c0.235-0.21,0.354-0.514,0.354-0.911c0-0.408-0.118-0.72-0.354-0.937
		c-0.235-0.218-0.571-0.326-1.008-0.326H10.788z"/>
</g>
</svg>
