<?xml version="1.0" encoding="utf-8"?>
<!DOCTYPE svg PUBLIC "-//W3C//DTD SVG 1.1//EN" "http://www.w3.org/Graphics/SVG/1.1/DTD/svg11.dtd">
<svg version="1.1" id="Layer_1" xmlns="http://www.w3.org/2000/svg" xmlns:xlink="http://www.w3.org/1999/xlink" x="0px" y="0px"
	 width="38px" height="36px" viewBox="0 0 38 36" enable-background="new 0 0 38 36" xml:space="preserve">
<g id="airplane">
	<path fill="#FFFFFF" d="M11.809,35.429L22.605,22.5h10.469c2.177,0,4.408-1.5,4.408-4.449S35.251,13.5,33.074,13.5H22.605
		L11.809,0.571C11.542,0.256,10.986,0,10.574,0H8.011C7.598,0,7.417,0.299,7.609,0.664L15.074,15h-9l-3.166-3.908
		C2.657,10.767,2.112,10.5,1.7,10.5H0.568c-0.412,0-0.655,0.324-0.539,0.721L1.574,16.5c0.116,0.397,0.116,2.603,0,3l-1.545,5.279
		C-0.087,25.176,0.156,25.5,0.568,25.5H1.7c0.412,0,0.957-0.267,1.21-0.592L6.074,21h9l-7.45,14.335C7.434,35.701,7.614,36,8.027,36
		h2.547C10.986,36,11.542,35.742,11.809,35.429z"/>
</g>
</svg>
