<svg width="75" height="75" viewBox="0 0 75 75" fill="none" xmlns="http://www.w3.org/2000/svg">
<path d="M8.67151 40.6962L42.1965 4.14124L50.5112 10.9434L47.422 27.4503H58.101L66.3401 34.2525L32.9778 70.7909L24.5776 64.0158L27.5896 47.4819H17.1489L8.67151 40.6962Z" fill="white"/>
<path d="M42.1959 4.14124L8.67151 40.6963H28.9607L24.5773 64.0158L58.1017 27.4608H37.8126L42.1959 4.14124Z" fill="#FFCE51"/>
<path d="M24.5774 64.0159L32.9775 70.7912L66.3399 34.2527L58.1008 27.4506L24.5774 64.0159Z" fill="#89DCFF"/>
<path d="M17.1489 47.4809H27.5896L28.9607 40.6952H8.67151L17.1489 47.4809Z" fill="#EA563D"/>
<path d="M42.196 4.14206L37.8129 27.4608L47.4222 27.4503L50.5115 10.9434L42.196 4.14206Z" fill="#89DCFF"/>
<path d="M8.67151 40.6962L42.1965 4.14124L50.5112 10.9434L47.422 27.4503H58.101L66.3401 34.2525L32.9778 70.7909L24.5776 64.0158L27.5896 47.4819H17.1489L8.67151 40.6962Z" stroke="black" stroke-width="3.125" stroke-linecap="round" stroke-linejoin="round"/>
<path d="M42.1959 4.14124L8.67151 40.6963H28.9607L24.5773 64.0158L58.1017 27.4608H37.8126L42.1959 4.14124Z" stroke="black" stroke-width="3.125" stroke-linecap="round" stroke-linejoin="round"/>
<path d="M24.5774 64.0159L32.9775 70.7912L66.3399 34.2527L58.1008 27.4506L24.5774 64.0159Z" stroke="black" stroke-width="3.125" stroke-linecap="round" stroke-linejoin="round"/>
<path d="M17.1489 47.4809H27.5896L28.9607 40.6952H8.67151L17.1489 47.4809Z" stroke="black" stroke-width="3.125" stroke-linecap="round" stroke-linejoin="round"/>
<path d="M42.196 4.14206L37.8129 27.4608L47.4222 27.4503L50.5115 10.9434L42.196 4.14206Z" stroke="black" stroke-width="3.125" stroke-linecap="round" stroke-linejoin="round"/>
</svg>
