<?xml version="1.0" encoding="utf-8"?>
<!DOCTYPE svg PUBLIC "-//W3C//DTD SVG 1.1//EN" "http://www.w3.org/Graphics/SVG/1.1/DTD/svg11.dtd">
<svg version="1.1" id="Layer_1" xmlns="http://www.w3.org/2000/svg" xmlns:xlink="http://www.w3.org/1999/xlink" x="0px" y="0px"
	 width="24px" height="24px" viewBox="0 0 24 24" enable-background="new 0 0 24 24" xml:space="preserve">
<g id="dribbble_2_">
	<path d="M12.554,12.009c0.02-0.006,0.039-0.012,0.058-0.018c-0.124-0.271-0.254-0.544-0.389-0.812
		c-3.037,0.881-5.967,0.95-6.804,0.95l-0.034,0.011c0,1.575,0.551,3.094,1.558,4.306C7.484,15.609,9.354,13.045,12.554,12.009z"/>
	<path d="M9.114,6.108c-1.758,0.883-3.059,2.509-3.531,4.41c0.834-0.008,3.183-0.095,5.866-0.775
		C10.474,8.038,9.472,6.607,9.114,6.108z"/>
	<path d="M8.125,17.562c1.167,0.866,2.548,1.322,4.004,1.322c0.859,0,1.695-0.16,2.488-0.476c-0.131-0.729-0.523-2.628-1.373-4.889
		C9.893,14.743,8.457,16.971,8.125,17.562z"/>
	<path d="M16.459,6.975c-1.215-1.02-2.744-1.578-4.33-1.578c-0.436,0-0.866,0.041-1.284,0.122c0.404,0.56,1.405,1.991,2.341,3.686
		C15.138,8.438,16.137,7.372,16.459,6.975z"/>
	<path d="M13.898,10.59c0.131,0.272,0.256,0.548,0.373,0.823l0.094,0.222c0.465-0.052,0.961-0.078,1.475-0.078
		c1.361,0,2.525,0.182,3.025,0.273c-0.062-1.374-0.529-2.665-1.363-3.761C17.095,8.546,15.955,9.708,13.898,10.59z"/>
	<path d="M21.5,0h-19C1.125,0,0,1.125,0,2.5v19C0,22.875,1.125,24,2.5,24h19c1.375,0,2.5-1.125,2.5-2.5v-19
		C24,1.125,22.875,0,21.5,0z M12.129,20.459c-4.593,0-8.329-3.737-8.329-8.33S7.536,3.8,12.129,3.8c4.594,0,8.33,3.736,8.33,8.329
		S16.723,20.459,12.129,20.459z"/>
	<path d="M14.932,13.108c0.71,2.001,1.072,3.669,1.219,4.443c1.359-1.015,2.297-2.511,2.606-4.168
		c-0.412-0.114-1.413-0.351-2.651-0.351C15.705,13.033,15.311,13.059,14.932,13.108z"/>
</g>
</svg>
