<?xml version="1.0" encoding="utf-8"?>
<!DOCTYPE svg PUBLIC "-//W3C//DTD SVG 1.1//EN" "http://www.w3.org/Graphics/SVG/1.1/DTD/svg11.dtd">
<svg version="1.1" id="Layer_1" xmlns="http://www.w3.org/2000/svg" xmlns:xlink="http://www.w3.org/1999/xlink" x="0px" y="0px"
	 width="24px" height="24px" viewBox="0 0 24 24" enable-background="new 0 0 24 24" xml:space="preserve">
<g id="flickr_2_">
	<path d="M21.5,0h-19C1.119,0,0,1.119,0,2.5v19C0,22.881,1.119,24,2.5,24h19c1.381,0,2.5-1.119,2.5-2.5v-19
		C24,1.119,22.881,0,21.5,0z M7.5,15.25c-1.934,0-3.5-1.566-3.5-3.5s1.566-3.5,3.5-3.5s3.5,1.566,3.5,3.5S9.434,15.25,7.5,15.25z
		 M16.5,15.25c-1.934,0-3.5-1.566-3.5-3.5s1.566-3.5,3.5-3.5s3.5,1.566,3.5,3.5S18.434,15.25,16.5,15.25z"/>
	<circle opacity="0.3" cx="7.5" cy="11.75" r="3.5"/>
</g>
</svg>
