<?xml version="1.0" encoding="utf-8"?>
<!DOCTYPE svg PUBLIC "-//W3C//DTD SVG 1.1//EN" "http://www.w3.org/Graphics/SVG/1.1/DTD/svg11.dtd">
<svg version="1.1" id="Layer_1" xmlns="http://www.w3.org/2000/svg" xmlns:xlink="http://www.w3.org/1999/xlink" x="0px" y="0px"
	 width="24px" height="24px" viewBox="0 0 24 24" enable-background="new 0 0 24 24" xml:space="preserve">
<g id="twitter_x5F_t_2_">
	<path d="M21.5,0h-19C1.119,0,0,1.119,0,2.5v19C0,22.881,1.119,24,2.5,24h19c1.381,0,2.5-1.119,2.5-2.5v-19
		C24,1.119,22.881,0,21.5,0z M13,16c0,0,2,0,3,0c2,0,2,4,0,4s-2,0-5,0s-5-2-5-6s0-5,0-8c0-2,4-2,4,0s0,2,0,2h6c2,0,2,4,0,4h-6v2.322
		C10,15.962,11.716,16.069,13,16z"/>
</g>
</svg>
